<?xml version="1.0" encoding="UTF-8"?>
<svg width="26px" height="26px" viewBox="0 0 26 26" version="1.1" xmlns="http://www.w3.org/2000/svg" xmlns:xlink="http://www.w3.org/1999/xlink">
    <title>Group</title>
    <g id="Page-1" stroke="none" stroke-width="1" fill="none" fill-rule="evenodd">
        <g id="Group" transform="translate(1.000000, 1.000000)" stroke="#000000">
            <circle id="Oval" stroke-width="0.5" fill="#FFFFFF" fill-rule="nonzero" cx="12" cy="12" r="12"></circle>
            <path d="M9.55102041,19.3469388 C9.95918367,18.122449 9.75510204,17.3061224 8.93877551,16.8979592 C10.1632653,16.7346939 10.4489796,16.122449 9.79591837,15.0612245 C11.2653061,15.4693878 12,15.2653061 12,14.4489796 C12.8163265,15.2653061 13.5510204,15.4693878 14.2040816,15.0612245 C13.5510204,16.122449 13.8367347,16.7346939 15.0612245,16.8979592 C14.244898,17.3061224 14.0408163,18.122449 14.4489796,19.3469388 L9.55102041,19.3469388 Z" id="Path"></path>
            <line x1="12" y1="14.4489796" x2="12" y2="4.65306122" id="Path"></line>
            <line x1="12" y1="10.7755102" x2="10.5306122" y2="9.30612245" id="Path"></line>
            <line x1="12" y1="10.1632653" x2="13.4693878" y2="8.69387755" id="Path"></line>
            <line x1="12" y1="8.32653061" x2="11.0204082" y2="7.10204082" id="Path"></line>
            <line x1="12" y1="7.71428571" x2="12.9795918" y2="6.48979592" id="Path"></line>
            <circle id="Oval" cx="10.5306122" cy="9.30612245" r="1"></circle>
            <circle id="Oval" cx="13.4693878" cy="8.69387755" r="1"></circle>
            <circle id="Oval" cx="11.0204082" cy="7.10204082" r="1"></circle>
            <circle id="Oval" cx="12.9795918" cy="6.48979592" r="1"></circle>
        </g>
    </g>
</svg>