<?xml version="1.0" encoding="UTF-8"?>
<svg width="24px" height="24px" viewBox="0 0 24 24" version="1.1" xmlns="http://www.w3.org/2000/svg" xmlns:xlink="http://www.w3.org/1999/xlink">
    <title>Group</title>
    <g id="Page-1" stroke="none" stroke-width="1" fill="none" fill-rule="evenodd" opacity="0.9">
        <g id="Group" fill="#FFFFFF" fill-rule="nonzero">
            <path d="M12,0 C5.372583,0 0,5.372583 0,12 C0,18.627417 5.372583,24 12,24 C18.627417,24 24,18.627417 24,12 C24,8.81740212 22.7357179,5.76515517 20.4852814,3.51471863 C18.2348448,1.26428208 15.1825979,0 12,0 Z M12.555,5.716 C12.9996176,6.40992257 13.2311567,7.21891857 13.221,8.043 C13.019045,9.05628007 12.4865518,9.97389874 11.707,10.652 C11.0238664,9.87571347 10.6523204,8.87399997 10.664,7.84 C10.761,6.653 12.558,5.716 12.558,5.716 L12.555,5.716 Z M7.283,14.684 C6.35850034,14.452374 5.53715056,13.9201674 4.948,13.171 C5.69452279,12.5767946 6.63462494,12.2800515 7.587,12.338 C8.676,12.479 9.458,14.177 9.458,14.177 C8.79813999,14.5549578 8.0419712,14.7312233 7.283,14.684 Z M19.058,17.116 L18.458,17.116 C17.1172164,17.1139899 15.7886614,16.8609641 14.541,16.37 C13.8780808,17.3188272 12.8905156,17.9919084 11.765,18.262 C10.418,18.497 8.858,16.768 8.858,16.768 C9.50308089,16.0732289 10.3373583,15.5823957 11.258,15.356 C11.7456644,15.2836393 12.2430954,15.3146436 12.718,15.447 C9.57351087,13.4758367 7.66244784,10.0272366 7.658,6.316 L7.658,5.716 L8.858,5.716 L8.858,6.316 C8.86564271,10.3853373 11.4352366,14.0088051 15.273,15.362 C14.9580475,15.1630059 14.7056963,14.8791107 14.545,14.543 C14.1534228,13.4276014 14.1890497,12.2066677 14.645,11.116 C15.7393323,11.5635414 16.6539198,12.3620466 17.245,13.386 C17.5356381,14.1768757 17.6024221,15.0326101 17.438,15.859 C17.778745,15.8962084 18.1212304,15.9152354 18.464,15.916 L19.064,15.916 L19.058,17.116 Z" id="Shape"></path>
        </g>
    </g>
</svg>